<svg width="96" height="96" xmlns="http://www.w3.org/2000/svg" xmlns:xlink="http://www.w3.org/1999/xlink" xml:space="preserve" overflow="hidden"><g transform="translate(-185 -217)"><path d="M196.622 272.337 205.178 275.899C205.352 275.975 205.54 276.015 205.731 276.017 206.665 276.017 207.357 274.953 207.36 273.346L207.371 267.156C207.374 265.246 206.403 263.292 205.201 262.791L196.645 259.229C196.47 259.153 196.282 259.113 196.092 259.111 195.158 259.111 194.466 260.175 194.463 261.782L194.452 267.972C194.449 269.882 195.42 271.836 196.622 272.337ZM196.452 267.877 201.085 263.244 202.971 264.029 196.993 270.008C196.638 269.389 196.451 268.689 196.452 267.975ZM205.37 267.152 205.37 267.215 200.712 271.874 198.766 271.064 204.782 265.047C205.168 265.681 205.372 266.41 205.371 267.152ZM205.327 273.795 202.709 272.705 205.365 270.048 205.36 273.342C205.361 273.494 205.35 273.645 205.327 273.795ZM196.496 261.333 199.089 262.413 196.457 265.045 196.463 261.786C196.462 261.634 196.473 261.483 196.496 261.333Z"/><path d="M221.794 282.818 230.35 286.38C230.525 286.456 230.713 286.495 230.903 286.498 231.838 286.498 232.529 285.433 232.532 283.827L232.543 277.637C232.547 275.727 231.575 273.772 230.373 273.272L221.818 269.71C221.643 269.634 221.455 269.595 221.264 269.592 220.33 269.592 219.638 270.656 219.635 272.263L219.624 278.453C219.621 280.363 220.592 282.318 221.794 282.818ZM221.635 272.266C221.635 272.115 221.646 271.964 221.668 271.814L229.594 275.114C230.241 275.789 230.584 276.7 230.543 277.634L230.532 283.824C230.533 283.975 230.522 284.127 230.499 284.276L222.574 280.976C221.926 280.301 221.583 279.391 221.624 278.456Z"/><path d="M275.819 260.092C273.57 257.714 270.099 256.949 267.059 258.161L238.492 269.532C238.458 269.508 238.422 269.486 238.384 269.467L205.136 255.623 206.09 252.024 217.546 247.276C218.236 246.99 219.027 247.317 219.313 248.006 219.381 248.171 219.417 248.347 219.416 248.525L219.416 249.209C219.431 249.791 219.07 250.317 218.521 250.512 217.119 250.947 216.164 252.245 216.166 253.713L216.166 254.683C216.151 255.412 216.365 256.127 216.778 256.728 217.671 257.983 219.303 258.472 220.739 257.912L221.708 257.533C226.106 255.813 229 251.574 229 246.851L229 244.842C229.036 242.712 228.252 240.65 226.81 239.083 224.559 236.712 221.09 235.951 218.053 237.163L188.633 249.098C188.582 249.119 188.533 249.143 188.486 249.172 188.208 249.357 188.041 249.668 188.04 250.002L188 272.486C187.999 272.891 188.242 273.255 188.615 273.411L190.991 274.4 192.452 277.34C192.559 277.556 192.74 277.725 192.963 277.818L205.75 283.142C207.775 283.987 209.733 283.199 210.859 281.091L212.605 277.823C212.686 277.67 212.825 277.516 212.958 277.501 213.254 277.521 213.884 277.992 214.315 279.168L216.046 283.883C217.023 286.543 218.622 288.501 220.433 289.255L233.22 294.579C233.62 294.746 234.083 294.636 234.364 294.306L235.662 292.787 237.864 292.999C237.884 293.001 237.903 292.992 237.923 292.992 237.949 292.995 237.974 293.004 238.001 293.004 238.082 292.998 238.162 292.982 238.24 292.957 238.254 292.953 238.27 292.954 238.284 292.949 238.315 292.944 238.346 292.938 238.377 292.931L251.377 287.645C251.68 287.521 251.904 287.257 251.976 286.938L255.113 273.016 266.547 268.276C267.236 267.99 268.027 268.317 268.314 269.006 268.382 269.171 268.417 269.347 268.417 269.525L268.417 270.209C268.432 270.791 268.071 271.317 267.522 271.512 266.12 271.947 265.165 273.245 265.167 274.713L265.167 275.738C265.13 277.584 266.596 279.11 268.442 279.146 268.886 279.155 269.327 279.076 269.74 278.912L270.709 278.533C275.106 276.813 278 272.573 278 267.851L278 265.846C278.037 263.72 277.256 261.66 275.819 260.092ZM218.799 239.019C220.717 238.241 222.903 238.522 224.562 239.76 226.129 240.958 227.033 242.829 227 244.801L227 246.85C227 250.749 224.611 254.249 220.98 255.67L220.012 256.049C219.315 256.32 218.531 255.976 218.259 255.28 218.198 255.123 218.167 254.956 218.167 254.788L218.167 253.742C218.152 253.16 218.513 252.634 219.061 252.439 220.464 252.005 221.419 250.706 221.417 249.238L221.417 248.671C221.437 247.791 221.127 246.935 220.549 246.272 219.596 245.223 218.088 244.886 216.78 245.429L204.867 250.366C204.579 250.486 204.363 250.732 204.283 251.034L203.272 254.847 191.675 250.018C191.663 250.013 191.663 250.005 191.675 250ZM236.962 290.903 235.336 290.746C235.011 290.715 234.692 290.844 234.48 291.092L233.316 292.453 221.201 287.409C219.941 286.885 218.686 285.269 217.924 283.193L216.192 278.479C215.552 276.733 214.365 275.594 213.096 275.506 213.042 275.502 212.989 275.5 212.936 275.5 212.031 275.523 211.218 276.059 210.84 276.882L209.095 280.148C208.744 281.157 207.642 281.691 206.633 281.34 206.594 281.327 206.556 281.312 206.518 281.296L194.076 276.115 192.616 273.177C192.509 272.961 192.327 272.791 192.104 272.698L190.001 271.822 190.038 251.517C190.037 251.512 190.041 251.507 190.046 251.507 190.048 251.506 190.05 251.507 190.051 251.508L236.999 271.056ZM276 267.85C276 271.749 273.611 275.249 269.98 276.67L269.012 277.049C268.315 277.32 267.531 276.976 267.259 276.28 267.198 276.123 267.167 275.956 267.167 275.788L267.167 274.742C267.151 274.16 267.513 273.634 268.061 273.439 269.464 273.005 270.419 271.706 270.417 270.238L270.417 269.672C270.437 268.793 270.128 267.938 269.552 267.275 268.6 266.224 267.09 265.885 265.78 266.429L253.867 271.366C253.567 271.491 253.346 271.753 253.274 272.07L250.139 285.988 239 290.518 239 271.482 267.798 260.019C269.717 259.241 271.903 259.522 273.563 260.76 275.129 261.959 276.033 263.829 276 265.801Z"/></g></svg>