<svg width="748" height="748" xmlns="http://www.w3.org/2000/svg" xmlns:xlink="http://www.w3.org/1999/xlink" xml:space="preserve" overflow="hidden"><g transform="translate(-1826 -892)"><g><g><g><path d="M39.1354 25.3229 94.1551 25.3229 94.1551 195.677 39.1354 195.677Z" transform="matrix(1.00453 0 0 1 2089 1127)"/><path d="M126.845 25.3229 181.864 25.3229 181.864 195.677 126.845 195.677Z" transform="matrix(1.00453 0 0 1 2089 1127)"/></g></g></g><path d="M2418.17 1359.5 1981.83 1359.5 1981.83 1094.58 2418.17 1094.58 2418.17 1359.5ZM2464.92 1079C2464.92 1061.86 2450.89 1047.83 2433.75 1047.83L1966.25 1047.83C1949.11 1047.83 1935.08 1061.86 1935.08 1079L1935.08 1406.25 2464.92 1406.25 2464.92 1079Z"/><path d="M2246.75 1437.42 2246.75 1445.21C2246.75 1449.88 2243.63 1453 2238.96 1453L2161.04 1453C2156.37 1453 2153.25 1449.88 2153.25 1445.21L2153.25 1437.42 1841.58 1437.42 1841.58 1453C1841.58 1470.14 1855.61 1484.17 1872.75 1484.17L2527.25 1484.17C2544.39 1484.17 2558.42 1470.14 2558.42 1453L2558.42 1437.42 2246.75 1437.42Z"/></g></svg>