<svg width="231" height="262" xmlns="http://www.w3.org/2000/svg" xmlns:xlink="http://www.w3.org/1999/xlink" xml:space="preserve" overflow="hidden"><defs><clipPath id="clip0"><rect x="975" y="739" width="231" height="262"/></clipPath></defs><g clip-path="url(#clip0)" transform="translate(-975 -739)"><path d="M1206 799.331C1206 788.334 1198.01 778.966 1187.15 777.23 1183.73 768.736 1175.51 763.16 1166.35 763.135 1160.85 763.147 1155.54 765.201 1151.47 768.897 1149.26 766.446 1146.58 764.462 1143.59 763.06 1143.01 749.204 1131.3 738.442 1117.44 739.024 1108.04 739.418 1099.65 745.036 1095.7 753.577 1092.03 753.206 1088.32 753.666 1084.84 754.921 1081.24 752.33 1076.91 750.937 1072.47 750.936 1070.94 750.937 1069.42 751.105 1067.92 751.438 1063.06 740.765 1050.47 736.054 1039.79 740.916 1033.76 743.665 1029.35 749.077 1027.89 755.545 1016.47 758.105 1009.29 769.433 1011.85 780.848 1011.85 780.848 1011.85 780.848 1011.85 780.848 1001.39 782.844 993.48 791.454 992.37 802.04 979.604 805.743 972.256 819.091 975.959 831.856 976.721 834.483 977.924 836.961 979.519 839.183L1006.57 1001 1164.15 1001 1192.48 831.464C1194.56 828.008 1195.66 824.05 1195.66 820.015 1195.66 819.429 1195.63 818.837 1195.58 818.242 1202.09 814.163 1206.03 807.012 1206 799.331ZM1153.33 780.371C1162.47 780.367 1169.89 787.777 1169.89 796.92 1169.9 802.579 1167.01 807.847 1162.23 810.889L1159.67 812.532 1160.99 815.282C1164.14 821.809 1162.63 829.633 1157.28 834.518 1150.93 835.39 1139.44 836.662 1132.9 837.273 1133.55 836.311 1134.06 835.256 1134.4 834.145 1136.65 826.903 1134.75 819.016 1129.47 813.58 1134.37 803.157 1129.89 790.735 1119.47 785.834 1117.68 784.994 1115.79 784.412 1113.84 784.105 1120.53 778.602 1130.35 779.254 1136.26 785.594L1138.77 788.261 1141.28 785.594C1144.39 782.252 1148.76 780.359 1153.33 780.371ZM1088.83 838.976 1087.14 838.976C1093.98 826.978 1090.05 811.721 1078.28 804.506 1078.15 802.601 1077.82 800.716 1077.27 798.887 1081.9 794.023 1089.36 793.187 1094.95 796.904L1097.6 798.651 1099.56 796.15C1104.3 790.066 1113.07 788.975 1119.16 793.713 1124.9 798.184 1126.25 806.319 1122.25 812.4L1120.5 815.053 1123 817.012C1129.07 821.64 1130.23 830.309 1125.61 836.375 1125.22 836.888 1124.79 837.373 1124.33 837.826 1112.84 838.574 1101.05 838.976 1088.83 838.976ZM1024.16 835.853C1018.9 826.942 1021.87 815.457 1030.78 810.201 1031.13 809.991 1031.5 809.792 1031.87 809.606L1033.75 808.647 1033.73 806.119C1033.75 795.707 1042.21 787.287 1052.63 787.312 1062.98 787.338 1071.38 795.708 1071.43 806.061L1071.36 808.62 1073.29 809.606C1082.52 814.243 1086.25 825.482 1081.61 834.711 1080.84 836.248 1079.86 837.671 1078.7 838.94 1060.47 838.884 1042.27 837.854 1024.16 835.853ZM1090.33 760.63C1091.28 760.452 1092.25 760.357 1093.21 760.343 1094.54 760.347 1095.86 760.495 1097.15 760.785L1100.2 761.458 1101.17 758.485C1104.28 748.917 1114.56 743.678 1124.13 746.784 1131.64 749.223 1136.72 756.223 1136.72 764.121 1136.72 764.35 1136.7 764.575 1136.68 764.801L1136.52 767.75 1138.96 768.609C1142.13 769.729 1144.93 771.709 1147.04 774.328L1147.01 774.411C1144.01 775.221 1141.21 776.629 1138.77 778.55 1128.69 770.528 1114.01 772.198 1105.99 782.28 1105.35 783.088 1104.76 783.936 1104.23 784.821 1101.19 785.796 1098.42 787.458 1096.13 789.68 1093.69 788.53 1091.05 787.866 1088.35 787.725 1088.06 787.71 1087.49 787.703 1087.27 787.702 1087.23 787.702 1087.22 787.675 1087.25 787.643 1094.67 780.563 1095.96 769.198 1090.33 760.63ZM1031.23 761.974 1034.03 761.688 1034.31 758.891C1035.06 751 1042.07 745.212 1049.96 745.963 1055.95 746.532 1060.95 750.777 1062.48 756.594L1063.49 760.342 1067.09 758.894C1074.5 755.918 1082.91 759.506 1085.88 766.906 1088.86 774.306 1085.27 782.717 1077.87 785.693 1076.15 786.382 1074.32 786.736 1072.47 786.735 1072.35 786.73 1072.23 786.719 1072.12 786.701L1069.19 786.49C1058.4 777.309 1042.22 778.607 1033.03 789.39 1032.69 789.799 1032.35 790.218 1032.03 790.647 1024.1 790.329 1017.92 783.639 1018.24 775.706 1018.53 768.524 1024.08 762.659 1031.23 761.974ZM996.28 808.213 999.141 807.42 999.141 804.503C999.17 795.72 1005.81 788.371 1014.54 787.451 1017.65 792.458 1022.68 795.963 1028.45 797.138 1027.57 799.503 1027.04 801.985 1026.88 804.505 1019.28 809.176 1014.65 817.467 1014.67 826.391 1014.68 829.295 1015.19 832.175 1016.19 834.903 1004.74 833.406 993.555 831.493 982.627 829.165L982.36 829.108C980.185 819.866 985.915 810.612 995.157 808.437 995.529 808.35 995.903 808.275 996.28 808.213ZM1012.4 994.106 986.135 836.936C1000.82 839.873 1015.64 842.057 1030.55 843.478L1043.65 994.106ZM1081.88 994.106 1050.57 994.106 1037.52 844.083C1051.79 845.256 1066.51 845.871 1081.88 845.871ZM1088.78 994.106 1088.78 845.871 1088.83 845.871C1104.19 845.871 1118.89 845.258 1133.14 844.087L1120.1 994.106ZM1158.31 994.106 1127.02 994.106 1140.12 843.483C1155.04 842.062 1169.88 839.877 1184.58 836.936ZM1190.35 813.276 1187.96 814.434 1188.47 817.033C1188.66 818.015 1188.76 819.014 1188.76 820.015 1188.76 823.567 1187.51 827.005 1185.23 829.733 1179.18 830.985 1173.06 832.108 1166.87 833.105 1169.81 827.514 1170.32 820.965 1168.29 814.986 1178.27 806.736 1179.66 791.967 1171.41 781.997 1167.63 777.431 1162.26 774.466 1156.39 773.7 1162.89 768.179 1172.64 768.977 1178.17 775.482 1179.62 777.19 1180.68 779.194 1181.27 781.353L1181.94 783.736 1184.41 783.867C1192.95 784.308 1199.52 791.587 1199.08 800.128 1198.79 805.776 1195.44 810.817 1190.35 813.276Z" fill-rule="evenodd"/></g></svg>