<svg width="96" height="96" xmlns="http://www.w3.org/2000/svg" xmlns:xlink="http://www.w3.org/1999/xlink" xml:space="preserve" overflow="hidden"><g transform="translate(-76 -208)"><path d="M151.585 260 141 260 141 262 151 262 151 278 141 278 141 280 151.586 280 157.586 286 164 286 164 254 157.586 253.984ZM162 256 162 284 158.414 284 153 278.586 153 261.414 158.414 255.987Z"/><path d="M93 257 93 258.014 89.411 258.014 87.411 256.014 82 256.014 82 267.014 87.415 267.014 89.415 265.014 93 265.014 93 283C93 285.209 94.7909 287 97 287L137 287C139.209 287 141 285.209 141 283L141 257C140.997 254.856 139.301 253.097 137.158 253.016 143.802 249.062 145.983 240.47 142.029 233.826 138.075 227.181 129.483 225 122.839 228.954 116.194 232.909 114.014 241.5 117.968 248.145 119.155 250.14 120.82 251.808 122.812 253L109.18 253C115.803 249.025 117.949 240.434 113.974 233.811 109.999 227.188 101.408 225.041 94.7848 229.016 88.1619 232.992 86.0155 241.583 89.9906 248.206 91.2922 250.374 93.1576 252.15 95.388 253.342 93.9377 253.981 93.0011 255.415 93 257ZM93 263.016 88.583 263.016 86.583 265.016 84 265.016 84 258.016 86.587 258.016 88.587 260.016 93 260.016ZM118 241C118 234.373 123.373 229 130 229 136.627 229 142 234.373 142 241 142 247.627 136.627 253 130 253 123.376 252.993 118.007 247.624 118 241ZM90 241C90 234.373 95.3726 229 102 229 108.627 229 114 234.373 114 241 114 247.627 108.627 253 102 253 95.3756 252.993 90.0072 247.624 90 241ZM95 257C95 255.895 95.8954 255 97 255L137 255C138.105 255 139 255.895 139 257L139 283C139 284.105 138.105 285 137 285L97 285C95.8954 285 95 284.105 95 283Z"/><path d="M134.996 279C134.996 280.105 134.101 281 132.996 281 131.891 281 130.996 280.105 130.996 279 130.996 277.895 131.891 277 132.996 277 134.101 277 134.996 277.895 134.996 279Z"/><path d="M103.996 237C103.996 238.105 103.101 239 101.996 239 100.891 239 99.996 238.105 99.996 237 99.996 235.895 100.891 235 101.996 235 103.101 235 103.996 235.895 103.996 237Z"/><path d="M99.996 241C99.996 242.105 99.1006 243 97.996 243 96.8914 243 95.996 242.105 95.996 241 95.996 239.895 96.8914 239 97.996 239 99.1006 239 99.996 239.895 99.996 241Z"/><path d="M107.996 241C107.996 242.105 107.101 243 105.996 243 104.891 243 103.996 242.105 103.996 241 103.996 239.895 104.891 239 105.996 239 107.101 239 107.996 239.895 107.996 241Z"/><path d="M103.996 245C103.996 246.105 103.101 247 101.996 247 100.891 247 99.996 246.105 99.996 245 99.996 243.895 100.891 243 101.996 243 103.101 243 103.996 243.895 103.996 245Z"/><path d="M131.996 237C131.996 238.105 131.101 239 129.996 239 128.891 239 127.996 238.105 127.996 237 127.996 235.895 128.891 235 129.996 235 131.101 235 131.996 235.895 131.996 237Z"/><path d="M127.996 241C127.996 242.105 127.101 243 125.996 243 124.891 243 123.996 242.105 123.996 241 123.996 239.895 124.891 239 125.996 239 127.101 239 127.996 239.895 127.996 241Z"/><path d="M131.996 245C131.996 246.105 131.101 247 129.996 247 128.891 247 127.996 246.105 127.996 245 127.996 243.895 128.891 243 129.996 243 131.101 243 131.996 243.895 131.996 245Z"/><path d="M135.996 241C135.996 242.105 135.101 243 133.996 243 132.891 243 131.996 242.105 131.996 241 131.996 239.895 132.891 239 133.996 239 135.101 239 135.996 239.895 135.996 241Z"/></g></svg>